<svg xmlns="http://www.w3.org/2000/svg" viewBox="0 0 498.07 673.73"><defs><style>.cls-1{fill:#1d1d1b;}.cls-2{fill:#ffefdb;}.cls-3{fill:#a98ca8;}</style></defs><g id="Capa_2" data-name="Capa 2"><g id="Capa_1-2" data-name="Capa 1"><path class="cls-1" d="M161.2,87.83h383a41.73,41.73,0,0,1,41.73,41.73v414.6a41.73,41.73,0,0,1-41.73,41.73h-383a249,249,0,0,1-249-249v0a249,249,0,0,1,249-249Z" transform="translate(585.9 87.83) rotate(90)"/><path class="cls-2" d="M221.43,75.62c-.39,5.69.4,9.9,2,18.33,1.93,10.29,2.89,15.44,6.06,20.31,1.95,3,5.54,8.49,12.66,10.94a21.53,21.53,0,0,0,15.43-.52c5-2.25,7.58-6,10-9.63,4-6,5.25-11.29,7.26-20.31s3-13.4,2.63-19.65c-.27-4.91-.78-12.37-5.67-19.91-1.89-2.92-5.53-8.53-12.92-11.47a25.28,25.28,0,0,0-16.22-.79c-10.17,3-14.85,11.86-16.88,15.69A40.33,40.33,0,0,0,221.43,75.62Z"/><path class="cls-1" d="M231.45,73.68c-1.31,0-3.1.09-4.15,1.48a3.64,3.64,0,0,0-.5,3.46c1.16,2.73,6,2.24,6.53,2.18a4.78,4.78,0,0,0,3.07-1.19,3.75,3.75,0,0,0,1.09-3.56C236.65,73.52,232.05,73.66,231.45,73.68Z"/><path class="cls-1" d="M231.6,82.93a8.27,8.27,0,0,0-3.16.43c-.54.27-.74.68-.38,1,.88.78,4.58.64,5,.62a7.6,7.6,0,0,0,2.33-.34c.66-.24,1.14-.67.83-1C235.57,82.89,232.06,82.93,231.6,82.93Z"/><path class="cls-1" d="M266,82.93a8.29,8.29,0,0,0-3.17.43c-.54.27-.74.68-.38,1,.88.78,4.58.64,5,.62a7.6,7.6,0,0,0,2.33-.34c.66-.24,1.14-.67.83-1C269.94,82.89,266.43,82.93,266,82.93Z"/><path class="cls-1" d="M261.62,79.31a5.29,5.29,0,0,0,3.56,1.39c1.52.19,3.52.45,5.24-.79.34-.25,2-1.45,1.88-3.07s-1.84-2.44-2.67-2.87A7.16,7.16,0,0,0,263,74c-.67.38-2.19,1.24-2.37,2.77A3.38,3.38,0,0,0,261.62,79.31Z"/><path class="cls-3" d="M232.34,56.76c-.71-.07-1.31.87-2.37,2.53a12.71,12.71,0,0,0-1.88,7.36c0,2.42.54,2.91.74,3.07.58.44,1.4.42,2.94.38a6,6,0,0,0,1.86-.18C236.25,68.74,234.75,57,232.34,56.76Z"/><path class="cls-3" d="M265.78,57.13c-1.15.12-1.68,2.72-2.38,6.21-.78,3.85-.28,5.07.25,5.79a4.06,4.06,0,0,0,1.78,1.33c.16.07,2.25.89,3.68-.24a2.9,2.9,0,0,0,.91-1.29c.31-.76.86-2.65-.79-6.63C268.26,59.94,267,57,265.78,57.13Z"/><path class="cls-3" d="M265.38,88.56a4.23,4.23,0,0,1,2.91.1,3.54,3.54,0,0,1,1.49.79c.91.94.6,2.55.24,4.45-1.11,5.88-1.33,7.17-2.22,9.84-.78,2.37-1.34,3.58-2,3.56-.41,0-.71-.52-.89-.84-1.47-2.71-1.55-6.55-1.73-9.64-.22-3.79-.56-5.64.59-7.07A3.76,3.76,0,0,1,265.38,88.56Z"/><path class="cls-3" d="M228.88,88.61c1-.81,2.68-.47,3.07-.4a5.35,5.35,0,0,1,1.93.8c1.8,1.29.87,4.15.54,12.7-.09,2.26-.14,5-1.53,5.54a1.52,1.52,0,0,1-.74.1c-2.15-.26-2.79-5.56-4-15.13C228.06,91.2,227.87,89.45,228.88,88.61Z"/><path class="cls-1" d="M245.25,109.48a35,35,0,0,1,8.26,0,6.61,6.61,0,0,1,3.66,1.14c.38.28,1.38,1,1.28,1.78,0,.3-.29,1-3.26,1.83-1.21.32-3.23.76-10.88.24-1.27-.08-2.73-.2-3.56-1.28a2.33,2.33,0,0,1-.49-1.83C240.62,110.19,242.65,109.86,245.25,109.48Z"/><path class="cls-3" d="M247.73,116.86a16.08,16.08,0,0,1,3.93,0,3.11,3.11,0,0,1,1.74.54c.19.13.66.48.62.85,0,.14-.15.49-1.56.87-.57.15-1.53.36-5.17.11a2.19,2.19,0,0,1-1.7-.61,1.1,1.1,0,0,1-.23-.87C245.53,117.19,246.5,117,247.73,116.86Z"/></g></g></svg>