<svg xmlns="http://www.w3.org/2000/svg" viewBox="0 0 498.07 405.69"><defs><style>.cls-1{fill:#1d1d1b;}.cls-2{fill:#fff0dc;}.cls-3{fill:#aa8da9;}</style></defs><g id="Capa_2" data-name="Capa 2"><g id="Capa_1-2" data-name="Capa 1"><path class="cls-1" d="M295.22-46.19H410.15A41.73,41.73,0,0,1,451.88-4.46v414.6a41.73,41.73,0,0,1-41.73,41.73H295.22a249,249,0,0,1-249-249v0A249,249,0,0,1,295.22-46.19Z" transform="translate(451.88 -46.19) rotate(90)"/><path class="cls-2" d="M277,58.81c.39,5.69-.4,9.9-2,18.33-1.93,10.29-2.89,15.43-6.06,20.3-1.95,3-5.54,8.5-12.66,11a21.55,21.55,0,0,1-15.43-.53c-5-2.25-7.58-6-10-9.63-4-6-5.25-11.28-7.26-20.3s-3-13.4-2.63-19.65c.27-4.91.78-12.38,5.67-19.91,1.89-2.93,5.53-8.54,12.92-11.48a25.43,25.43,0,0,1,16.22-.79c10.17,3,14.85,11.86,16.88,15.7A40.33,40.33,0,0,1,277,58.81Z"/><path class="cls-1" d="M267,56.86c1.31,0,3.1.09,4.15,1.48a3.66,3.66,0,0,1,.5,3.47c-1.16,2.72-6,2.23-6.53,2.17a4.77,4.77,0,0,1-3.07-1.18A3.77,3.77,0,0,1,261,59.23C261.82,56.7,266.42,56.84,267,56.86Z"/><path class="cls-1" d="M266.87,66.12a8.27,8.27,0,0,1,3.16.42c.54.28.74.68.38,1-.88.79-4.58.65-5,.63a7.91,7.91,0,0,1-2.33-.34c-.66-.25-1.14-.67-.83-1C262.9,66.07,266.41,66.11,266.87,66.12Z"/><path class="cls-1" d="M232.5,66.12a8.27,8.27,0,0,1,3.16.42c.54.28.74.68.38,1-.88.79-4.58.65-5,.63a7.91,7.91,0,0,1-2.33-.34c-.66-.25-1.14-.67-.83-1C228.53,66.07,232,66.11,232.5,66.12Z"/><path class="cls-1" d="M236.85,62.5a5.28,5.28,0,0,1-3.56,1.38c-1.52.2-3.52.45-5.24-.79-.34-.24-2-1.45-1.88-3.06s1.84-2.44,2.67-2.87a7.1,7.1,0,0,1,6.63,0c.67.38,2.2,1.23,2.37,2.77A3.38,3.38,0,0,1,236.85,62.5Z"/><path class="cls-3" d="M266.13,40c.71-.07,1.31.86,2.37,2.52a12.72,12.72,0,0,1,1.88,7.37c0,2.41-.54,2.91-.74,3.07-.58.44-1.4.41-2.94.37a5.71,5.71,0,0,1-1.86-.18C262.22,51.92,263.72,40.2,266.13,40Z"/><path class="cls-3" d="M232.69,40.32c1.15.12,1.68,2.71,2.38,6.21.78,3.85.29,5.07-.24,5.78A4.18,4.18,0,0,1,233,53.65c-.16.06-2.25.88-3.68-.24a2.94,2.94,0,0,1-.91-1.3c-.31-.76-.86-2.65.79-6.62C230.22,43.12,231.43,40.19,232.69,40.32Z"/><path class="cls-3" d="M233.09,71.75a4.3,4.3,0,0,0-2.91.09,3.68,3.68,0,0,0-1.49.8c-.91.94-.6,2.54-.24,4.45,1.11,5.88,1.33,7.16,2.22,9.84.79,2.36,1.34,3.57,2,3.56.41,0,.71-.52.89-.84,1.47-2.71,1.55-6.55,1.73-9.65.22-3.79.56-5.64-.59-7.07A3.68,3.68,0,0,0,233.09,71.75Z"/><path class="cls-3" d="M269.59,71.8c-1-.81-2.68-.48-3.07-.4a5.19,5.19,0,0,0-1.93.79c-1.8,1.3-.87,4.15-.54,12.71.09,2.26.14,5,1.53,5.54a1.69,1.69,0,0,0,.75.1c2.14-.26,2.78-5.57,3.95-15.13C270.41,74.38,270.6,72.64,269.59,71.8Z"/><path class="cls-1" d="M253.22,92.66a35,35,0,0,0-8.26,0,6.78,6.78,0,0,0-3.66,1.14c-.38.28-1.38,1-1.28,1.78,0,.3.29,1,3.26,1.83,1.21.33,3.23.76,10.88.25,1.27-.09,2.73-.21,3.56-1.29a2.29,2.29,0,0,0,.5-1.83C257.85,93.37,255.82,93.05,253.22,92.66Z"/><path class="cls-3" d="M250.74,100a16.6,16.6,0,0,0-3.93,0,3.28,3.28,0,0,0-1.74.54c-.19.14-.66.49-.61.85,0,.15.14.49,1.55.87.57.16,1.53.36,5.17.12a2.21,2.21,0,0,0,1.7-.61,1.12,1.12,0,0,0,.23-.87C252.94,100.38,252,100.22,250.74,100Z"/></g></g></svg>