<?xml version="1.0" encoding="utf-8"?>
<!-- Generator: Adobe Illustrator 25.4.1, SVG Export Plug-In . SVG Version: 6.00 Build 0)  -->
<svg version="1.1" id="Capa_1" xmlns="http://www.w3.org/2000/svg" xmlns:xlink="http://www.w3.org/1999/xlink" x="0px" y="0px"
	 viewBox="0 0 600 600" style="enable-background:new 0 0 600 600;" xml:space="preserve">
<style type="text/css">
	.st0{fill:#FEFEFE;}
	.st1{fill:#090909;}
	.st2{fill:#0A0A0A;}
	.st3{fill:#0B0B0B;}
	.st4{fill:#0F0F0F;}
	.st5{fill:#101010;}
	.st6{fill:#141414;}
	.st7{fill:#1A1A1A;}
	.st8{fill:#151515;}
	.st9{fill:#131313;}
	.st10{fill:#252525;}
	.st11{fill:#191919;}
	.st12{fill:#242424;}
	.st13{fill:#B8B8B8;}
	.st14{fill:#EDEDED;}
	.st15{fill:#F2F2F2;}
	.st16{fill:#ECECEC;}
	.st17{fill:#F1F1F1;}
	.st18{fill:#F4F4F4;}
	.st19{fill:#111111;}
</style>
<g>
	<g>
		<path class="st0" d="M599.88,300.6c0,98.16-0.03,196.33,0.12,294.49c0.01,4.11-0.81,4.91-4.91,4.91
			c-196.72-0.13-393.45-0.13-590.17,0C0.81,600,0,599.2,0,595.09C0.13,398.36,0.13,201.64,0,4.91C0,0.81,0.8,0,4.91,0
			c196.72,0.13,393.45,0.13,590.17,0c4.11,0,4.92,0.8,4.91,4.91C599.85,103.47,599.88,202.04,599.88,300.6z"/>
		<path class="st1" d="M362.56,222.01c-1.23-3.51-1.51-8-6.16-8.71c-4.84-0.74-8.42,2.2-11.09,5.84c-7.27,9.91-9.83,21.8-9.65,33.39
			c0.07,4.5,0.1,9.66,0.66,14.81c-9.2-1.29-18.37-3.16-27.73-3.55c-8.84-0.38-17.56,0.02-26.06,2.82c-1.55,0.51-4.16,2.33-4.64,0.25
			c-0.47-2.06-1.88-3.91-1.32-6.55c2.98-13.93,2.45-27.67-4.63-40.43c-3.74-6.74-9.33-7.07-13.27-0.41
			c-7.54,12.76-9.97,26.43-4.09,40.63c1.24,3-0.19,7.62,5.03,8.92c0.58,0.14,0.34,7.25-3.33,8.85
			c-10.46,4.55-13.86,14.34-18.45,23.36c-1.03,2.02-0.1,2.88,1.62,3.61c2.17,0.91,4.29,1.94,6.88,3.12
			c-3.42,2.23-6.55,1.42-9.61,0.87c-1.81-0.33-3.5-0.68-5.14,0.58c-1.3,1-2.77,2.06-2.67,3.73c0.13,2.16,2.39,1.63,3.75,2.09
			c2.35,0.79,5.21-0.17,7.58,2.33c-2.68,1.4-5.11,0.48-7.51,0.15c-2.13-0.29-4.84-2.62-6.09,0.9c-1.13,3.19-1.94,6.77,1.2,7.58
			c-18.65,19-36.82,38.63-44.41,67.01c-1.4-8.29,4.01-22.99,12.8-34.69c7.39-9.83,15.43-19.18,23.53-29.16
			c-11.05,0.37-21.32,2.82-31.79,1.52c7.62-3.31,15.82-3.17,23.79-4.35c2.17-0.32,4.37-0.63,6.56-0.66
			c4.34-0.05,5.19-2.88,5.38-6.35c0.24-4.3-3.22-3.38-5.49-3.62c-9.33-1-18.7-1.74-28.04-2.66c-2.11-0.21-4.2-0.77-6.24-1.68
			c11.98-1.3,23.88-0.6,35.76,0.92c1.19,0.15,2.38,0.56,3.55,0.48c2.89-0.2,4.14-2.62,4.66-4.81c0.72-3.03-2.34-2.07-3.71-2.34
			c-9.33-1.83-18.71-3.44-28.03-5.75c3.66-1.91,7.48-1.26,11.16-0.81c6.34,0.77,12.67,1.78,18.93,3.02
			c4.32,0.85,6.92-0.16,8.93-4.43c3.82-8.14,8.28-15.86,16.22-21.1c1.77-1.17,2.79-3.92,1.55-8.1c-5.13-17.22-7.34-34.88,3.29-51.33
			c2.43-3.76,5.83-5.96,10.58-5.34c4.76,0.63,7.53,3.68,8.89,7.89c3.45,10.66,6.55,21.41,5.58,32.84c-0.15,1.79-0.14,3.6-0.03,5.39
			c0.26,4.24,1.27,6.29,6.6,4.61c11.91-3.75,24.12-2.19,36.2-0.16c7.71,1.29,8.92-0.51,8.55-8.32
			c-0.78-16.26,5.32-30.53,15.29-42.98c4.21-5.26,10.39-3.92,13.71,2.08c1.25,2.26,2.31,4.66,2.02,7.39
			C364.4,222.01,363.6,222.1,362.56,222.01z"/>
		<path class="st2" d="M362.56,222.01c0.37-0.45,0.73-0.9,1.1-1.35c2.77,13.84,0.85,26.98-6.1,39.27
			c-2.19,3.87-5.28,7.38,0.23,10.87c-1.66,2.42-4.09,0.97-6.04,2.43c8.05,7.26,13.61,15.9,16.56,26.05
			c1.04,3.56,3.28,2.26,5.17,1.59c5.26-1.87,10.37-4.21,15.94-5.1c2.46-0.39,4.95-0.8,9.12,0.74c-8.08,2.69-14.6,4.75-21.02,7.08
			c-1.78,0.64-5.18,0.54-4.51,3.36c0.56,2.35,2.82,3.9,6.04,3.77c8.57-0.34,17.17-1.15,25.74,0.03c2.12,0.29,4.41-0.07,7.48,2.29
			c-10.04,0.54-18.95,0.91-27.83,1.57c-2.11,0.16-5.86-1.43-6.03,1.36c-0.17,2.77,3.61,3.17,6.21,3.27
			c8.96,0.37,17.57,2.04,25.42,7.18c-9.72-1.27-19.44-2.54-30.9-4.04c16.96,22.04,34.04,42.37,38.77,69.83
			c-3.07-0.59-3.31-2.64-3.7-4.23c-4.54-18.69-14.69-34.38-26.19-49.36c-2.55-3.33-5.19-6.6-7.6-10.03
			c-2.89-4.14-5.51-8.43-11.76-6.83c-1.38,0.35-3.29-0.32-3.36-1.79c-0.09-2.26,2.16-1.73,3.61-1.96c0.78-0.12,1.62,0.04,2.39-0.12
			c1.21-0.25,3.21,0.34,2.96-1.89c-0.17-1.51-1.66-1.46-2.86-1.47c-3.08-0.02-6.17-0.01-10.13-0.01c2.96-4.3,7.21-1.88,9.88-4.2
			c-2.99-5.38-8.19,0.83-11.6-2.15c0.08-0.33,0.09-0.87,0.25-0.92c7.29-2.3,6.46-6.88,3.94-12.48c-3.5-7.78-7.48-15.08-15.2-19.42
			c-2.79-1.57-2.58-3.09-0.72-5.07c0.41-0.44,1.26-0.88,1.22-1.25c-0.88-9.33,9.8-12.26,11.16-20.88
			C361.6,239.43,362.86,230.83,362.56,222.01z"/>
		<path class="st3" d="M393.28,392.18c-4.72-1.42-7.39-5.61-9.3-9.22c-6.8-12.84-17.78-20.9-29.97-27.39
			c-12.23-6.51-25.42-10.23-39.52-9.75c-2.59,0.09-5.22,0.04-7.78-0.29c-20.49-2.66-38.84,3.82-56.9,12.55
			c-10.67,5.16-19.09,11.98-24.04,22.95c-1.7,3.76-4.36,7.06-8.42,9.05c5.11-9.58,7.92-20.45,18.28-26.78
			c9.15-5.59,18.55-10.72,27.88-15.97c3.47-1.95,7.51-2.61,11.47-3.29c17.07-2.93,34.83-3.8,51.31-1.1
			c18.78,3.07,37.71,10.2,51.02,26.06c2.95,3.51,5.92,7.03,8.57,10.77c1.37,1.93,2.9,3.17,5.17,3.58
			C394.66,385.55,394.84,388.65,393.28,392.18z"/>
		<path class="st4" d="M256.39,368.23c2.01-0.03,4.01,0.1,5.74,1.24c3.12,2.05,7.49,4.37,6.15,8.32c-1.25,3.67-5.74,2.29-9.03,1.47
			c-5.58-1.4-10.11,0.52-14.13,4.3c-3.05,2.87-6.26,5.54-10.59,6.27c-2.65,0.44-3.68-0.28-2.75-3.2
			C234.49,378.16,247.47,368.36,256.39,368.23z"/>
		<path class="st5" d="M300.76,359.99c9.49,0.02,15.03,3.83,16.72,10.22c0.89,3.36-0.34,6.1-3.53,4.17
			c-8.72-5.28-16.22-2.72-23.97,1.81c-1.8,1.05-4.4,1.38-6.13-0.54c-1.82-2.02-0.55-4.25,0.45-6.12
			C288.14,362.34,294.85,360.35,300.76,359.99z"/>
		<path class="st5" d="M364.29,380.65c-0.07,1.35,0.36,2.78-1.09,3.32c-1.28,0.48-2.54-0.39-3.1-1.28
			c-5.59-8.93-12.56-10.72-21.6-4.9c-1.59,1.02-4.72,1.27-5.98-0.84c-1.2-2.02,1.3-3.45,2.37-5.02c0.66-0.97,1.62-1.76,2.51-2.56
			c4.62-4.21,9.75-7.65,16.16-4.78C360.33,367.62,363.18,373.78,364.29,380.65z"/>
		<path class="st6" d="M343.94,311.3c-6.75-0.28-10.92-4.9-10.64-11.8c0.26-6.53,6.05-11.44,13.11-11.11
			c6.91,0.32,11.42,4.69,11.05,10.69C356.99,306.5,351.33,311.61,343.94,311.3z"/>
		<path class="st7" d="M265.14,311.02c-7.73,0.02-11.95-3.62-11.87-10.24c0.08-6.89,6.3-12.46,14.09-12.63
			c7.27-0.16,12.17,4.64,12.06,11.82C279.32,306.74,273.81,311,265.14,311.02z"/>
		<path class="st8" d="M289.98,301.3c6.64-9.02,26.38-9.9,31.88-1.82C311.19,296.95,301.19,297.01,289.98,301.3z"/>
		<path class="st9" d="M391.24,380.27c-0.68-3.97-2.13-7.9-0.6-12.99c4.28,7.72,6.05,15.26,7.05,23.03c0.26,2.06-1.17,2.18-2.71,1.9
			C392.24,388.7,392.64,384.2,391.24,380.27z"/>
		<path class="st10" d="M316.35,302.62c-6.71,2.68-12.61,2.65-18.73,0.58C302.54,297.89,309.04,297.57,316.35,302.62z"/>
		<path class="st11" d="M295.42,335.79c6.84-4.52,16.5-4.49,22.34,0.07C310.12,335.85,303.35,336.73,295.42,335.79z"/>
		<path class="st12" d="M215.31,370.36c-3.81,6.08-2.03,14.15-7.21,19.58C209.57,383.02,207.58,374.88,215.31,370.36z"/>
		<path class="st13" d="M391.24,380.27c1.96,3.76,3.08,7.77,3.74,11.94c-0.57-0.01-1.13-0.02-1.7-0.03c-0.75-2.95-1.5-5.9-2.24-8.86
			C391.1,382.31,391.17,381.29,391.24,380.27z"/>
		<path class="st14" d="M237.35,384.7c6.84-11.2,20.13-18.28,26.68-9.24C253.5,374.69,245.43,379.48,237.35,384.7z"/>
		<path class="st15" d="M314.01,371.66c-10.08-9.9-18.35,0.35-27.59,2.27c2.04-6.67,7.19-10.26,14.53-10.67
			C306.87,362.94,311.95,364.22,314.01,371.66z"/>
		<path class="st16" d="M358.5,375.44c-6.52-7.15-13.31-4.99-20.96-0.03c4.03-6.13,8.95-8.99,13.44-8.34
			C355.48,367.73,357.36,371.07,358.5,375.44z"/>
		<path class="st17" d="M354.37,299.27c-0.06,5.18-4.36,9.1-9.88,9c-5.03-0.09-8.4-3.33-8.43-8.13c-0.04-5.36,3.93-8.93,9.82-8.84
			C351.02,291.39,354.42,294.58,354.37,299.27z"/>
		<path class="st18" d="M266.14,308.6c-6.44,0.03-10.66-3.08-10.64-7.85c0.02-4.79,6.24-9.94,12.23-10.13
			c5.27-0.17,8.6,3.04,8.68,8.34C276.49,305.03,272.73,308.56,266.14,308.6z"/>
		<path class="st3" d="M347.99,298.82c-0.37,2.81-1.19,5.23-4.65,5.04c-2.88-0.16-4.37-2.15-4.35-4.75
			c0.02-2.87,1.59-4.96,4.79-5.01C346.91,294.06,347.72,296.23,347.99,298.82z"/>
		<path class="st19" d="M273.26,298.94c-0.44,3.21-2.32,4.94-5.52,5.09c-3.73,0.17-5.55-2.05-5.58-5.47
			c-0.03-3.49,2.38-4.69,5.58-4.71C271.16,293.83,272.73,295.78,273.26,298.94z"/>
	</g>
</g>
</svg>