<svg xmlns="http://www.w3.org/2000/svg" viewBox="0 0 334.45 45.96"><defs><style>.cls-1{fill:#12120f;opacity:0.43;}.cls-2{fill:#1d1e1c;}</style></defs><g id="Capa_2" data-name="Capa 2"><g id="Capa_1-2" data-name="Capa 1"><path class="cls-1" d="M332.56,3.25q-9.07,4.9-18.78,9.76-14.31,7.14-27.95,13.18c-6,1.87-9.14,2.35-10.55,5.28-1.59,3.27-.58,8.78,2.7,11.27,9.62,7.33,37.31-12.48,47.41-19.71,2.74-2,4.93-3.65,6.33-4.75Z"/><path class="cls-2" d="M334.45,0q-9.09,4.91-18.78,9.76-14.32,7.15-28,13.19c-6,1.87-9.14,2.34-10.55,5.27-1.58,3.27-.57,8.78,2.7,11.27,9.63,7.33,37.31-12.48,47.41-19.71,2.74-2,4.93-3.65,6.33-4.75Q334,7.52,334.45,0Z"/><path class="cls-1" d="M1.88,4.87Q11,9.78,20.66,14.63q14.33,7.15,28,13.19c6,1.87,9.14,2.34,10.55,5.27,1.58,3.27.57,8.78-2.7,11.27C46.84,51.69,19.16,31.88,9.06,24.65c-2.74-2-4.93-3.65-6.33-4.75Q2.31,12.39,1.88,4.87Z"/><path class="cls-2" d="M0,1.62q9.09,4.9,18.78,9.76,14.31,7.15,28,13.19c6,1.87,9.13,2.35,10.55,5.27,1.58,3.28.57,8.78-2.71,11.28C45,48.44,17.28,28.63,7.18,21.4c-2.74-2-4.93-3.64-6.33-4.74Q.43,9.15,0,1.62Z"/></g></g></svg>