<svg xmlns="http://www.w3.org/2000/svg" viewBox="0 0 125.14 118.06"><defs><style>.cls-1{fill:#a6b594;}.cls-2{fill:#1d1e1c;}</style></defs><g id="Capa_2" data-name="Capa 2"><g id="Capa_1-2" data-name="Capa 1"><path class="cls-1" d="M16.5,104.19c3.93,2.8,10.58,6.78,22,9.69,12.44,3.18,32.65,8.34,53.61-1.78,4.55-2.2,18.11-9,26.5-24.72,2-3.79,7.84-15,6.33-29.67-1.8-17.52-13-28.85-21.36-37.39C98.66,15.38,93.46,10.1,84.74,5.88c-3-1.46-22.59-10.55-43.12-2.77A42,42,0,0,0,26,13c-3.78,3.87-5.77,7.54-8.9,14.05C9.11,43.66,5.12,52,2.85,61.86.14,73.68-1.35,80.19,1.66,87.77,4.9,95.94,11.47,100.61,16.5,104.19Z"/><path class="cls-2" d="M31.83,85.05a7.2,7.2,0,0,0-1.14,5.89,7.1,7.1,0,0,0,3.91,4.55,7.21,7.21,0,0,0,6.67-.75A7.19,7.19,0,0,0,44,88.56a6.93,6.93,0,0,0-2.27-4.69,7.06,7.06,0,0,0-5.89-1.49A6.89,6.89,0,0,0,31.83,85.05Z"/><path class="cls-2" d="M85,69.21a11.9,11.9,0,0,0,1.12,6.5c2.24,4.14,7,5.22,8.31,5.53,1.1.26,7.15,1.65,12.07-2.47a13.27,13.27,0,0,0,4.55-8.9,13.13,13.13,0,0,0-3.76-10.19,13.28,13.28,0,0,0-10.58-3.36c-1.73.18-6.35,1-9.3,5A13.59,13.59,0,0,0,85,69.21Z"/><path class="cls-2" d="M34.84,31.2c4,1.37,7.41-.82,8.86-1.73s5.18-3.28,5.39-7.47c.18-3.88-2.8-7.18-6-8.5-4.08-1.69-8.31-.05-10.78,2.17a9.73,9.73,0,0,0-3.46,7.52A9.1,9.1,0,0,0,34.84,31.2Z"/><path class="cls-2" d="M62.49,32.44a5.8,5.8,0,0,0,1.08,4.2,6.25,6.25,0,0,0,7.13,1.58l-.52-.39a5.53,5.53,0,0,1-6.1-1.35,5.4,5.4,0,0,1-1.15-4Z"/></g></g></svg>