<svg xmlns="http://www.w3.org/2000/svg" xmlns:xlink="http://www.w3.org/1999/xlink" viewBox="0 0 186.98 70.1"><defs><style>.cls-1{fill:none;}.cls-2{fill:#55272a;}.cls-3{clip-path:url(#clip-path);}.cls-4{fill:#583235;}.cls-5{fill:#1c1215;}.cls-6{fill:#b95d61;}.cls-7{opacity:0.74;}.cls-8{fill:#f39419;}.cls-9{fill:#fff;}.cls-10{fill:#ececec;}.cls-11{clip-path:url(#clip-path-3);}</style><clipPath id="clip-path" transform="translate(0 2.08)"><rect class="cls-1" x="3.53" y="3.58" width="179.92" height="52.56" rx="26.28"/></clipPath><clipPath id="clip-path-3" transform="translate(0 2.08)"><rect class="cls-1" x="3.53" y="2.1" width="179.92" height="52.56" rx="26.28" transform="translate(186.98 56.75) rotate(-180)"/></clipPath></defs><g id="Capa_2" data-name="Capa 2"><g id="Capa_1-2" data-name="Capa 1"><rect class="cls-2" y="2.08" width="186.98" height="59.72" rx="29.86"/><g class="cls-3"><rect class="cls-4" x="3.53" y="5.66" width="179.92" height="52.56" rx="26.28"/><path class="cls-5" d="M41.9,35.93c.81-1.88,4.4-9.69,13.17-13.35,8.36-3.49,18.24-1.88,25.77,4.08a23.86,23.86,0,0,1,15.57-5.75c8.66.12,14.22,5.15,16.31,7.05,1.75,1.58,10.22,9.25,8.16,16.87-.24.88-1.2,3.93-5.56,6.86-11,7.39-27,2.88-39.86-.93A144.49,144.49,0,0,1,41.9,35.93Z" transform="translate(0 2.08)"/><path class="cls-6" d="M6.49,50.76a74.8,74.8,0,0,1,41-17.8c7-.69,27.52-2.72,45.42,10.94a57.23,57.23,0,0,1,17,21.51A195.25,195.25,0,0,1,38.75,61.7,191.92,191.92,0,0,1,6.49,50.76Z" transform="translate(0 2.08)"/><path class="cls-6" d="M92.79,42.14a24.38,24.38,0,0,0-4.68-2.84,81.87,81.87,0,0,1,24.06-5.41c8.59-.6,28.4-2.05,45.42,10.94a57.14,57.14,0,0,1,17,21.5c-55.17,4.13-70.31,0-71.77-5.47-.33-1.27-.31-4-2-7.78A25.66,25.66,0,0,0,92.79,42.14Z" transform="translate(0 2.08)"/></g><g class="cls-7"><path class="cls-5" d="M45.65,23.39A31.35,31.35,0,0,1,71.4,16.62c.78.14,1.12-1.06.33-1.21a32.71,32.71,0,0,0-27,7.1c-.61.51.28,1.4.89.88Z" transform="translate(0 2.08)"/></g><g class="cls-7"><path class="cls-5" d="M43.71,19.65a31.32,31.32,0,0,1,25.75-6.77c.79.14,1.12-1.06.33-1.21a32.71,32.71,0,0,0-27,7.09c-.62.52.27,1.4.88.89Z" transform="translate(0 2.08)"/></g><g class="cls-7"><path class="cls-5" d="M41.65,15.9A31.35,31.35,0,0,1,67.4,9.13c.78.15,1.12-1.06.33-1.2a32.7,32.7,0,0,0-27,7.09c-.61.52.27,1.4.89.88Z" transform="translate(0 2.08)"/></g><g class="cls-7"><path class="cls-5" d="M117.92,22.51a32.68,32.68,0,0,0-27-7.1c-.79.15-.46,1.35.33,1.21A31.36,31.36,0,0,1,117,23.39c.61.51,1.5-.36.88-.88Z" transform="translate(0 2.08)"/></g><g class="cls-7"><path class="cls-5" d="M119.86,18.76a32.71,32.71,0,0,0-27-7.09c-.79.15-.46,1.35.33,1.21A31.32,31.32,0,0,1,119,19.65c.61.51,1.5-.37.88-.89Z" transform="translate(0 2.08)"/></g><g class="cls-7"><path class="cls-5" d="M121.93,15A32.7,32.7,0,0,0,95,7.93c-.79.14-.45,1.35.33,1.2A31.35,31.35,0,0,1,121,15.9c.61.52,1.5-.36.89-.88Z" transform="translate(0 2.08)"/></g><path class="cls-8" d="M123.57,41.15c-2.16,4.52-8.54,6.77-12.26,3.78A6.88,6.88,0,0,1,109.24,42a7,7,0,0,1-3.46,3.24c-3.36,1.35-7.36-.7-9.43-4-1.86,3.78-6.29,6.34-9.95,4.87a7.62,7.62,0,0,1-4.21-5.09c-2.17,2.86-5.84,4.54-9,3.29-2.63-1.06-4.33-4-4.59-7.09-2.2,2.46-5.55,3.79-8.43,2.64-3.9-1.56-5.76-7.24-3.9-11.55,1.52-3.54,5.52-6.05,9.19-5.17a8.44,8.44,0,0,1,.35-1c1.68-3.9,6.35-6.55,10.28-4.82a7,7,0,0,1,3.31,3.13A7.32,7.32,0,0,1,84,19.8c2.19-2.48,5.69-3.79,8.75-2.44a6.47,6.47,0,0,1,1.6,1c3.11-2.37,7.9-2.57,10.63.44a7.25,7.25,0,0,1,1.76,3.84,7.19,7.19,0,0,1,6.92-.85c3,1.32,4.49,4.71,4.46,7.77a6.67,6.67,0,0,1,3.75,1.56C124.78,33.6,125,38.1,123.57,41.15Z" transform="translate(0 2.08)"/><path class="cls-9" d="M74.35,35.61A3.42,3.42,0,0,1,73,34.5a3,3,0,0,1-.57-1.62h1.66a1.75,1.75,0,0,0,.68,1.23,2.52,2.52,0,0,0,1.6.48,2.22,2.22,0,0,0,1.45-.43,1.3,1.3,0,0,0,.53-1.06,1,1,0,0,0-.57-1A7.44,7.44,0,0,0,76,31.48a11.94,11.94,0,0,1-1.76-.59,3.41,3.41,0,0,1-1.17-.9,2.45,2.45,0,0,1-.48-1.57A2.48,2.48,0,0,1,73,27a3,3,0,0,1,1.25-1,4.38,4.38,0,0,1,1.86-.37,3.86,3.86,0,0,1,2.59.84,3.05,3.05,0,0,1,1.06,2.31h-1.6a1.77,1.77,0,0,0-.61-1.26,2.21,2.21,0,0,0-1.5-.48,2.27,2.27,0,0,0-1.37.38,1.22,1.22,0,0,0-.51,1,1.13,1.13,0,0,0,.3.81,2.27,2.27,0,0,0,.78.52,13.11,13.11,0,0,0,1.3.43,13.21,13.21,0,0,1,1.7.58,3.07,3.07,0,0,1,1.12.85,2.35,2.35,0,0,1,.48,1.49,2.58,2.58,0,0,1-.44,1.49,3,3,0,0,1-1.24,1,4.22,4.22,0,0,1-1.85.38A4.92,4.92,0,0,1,74.35,35.61Z" transform="translate(0 2.08)"/><path class="cls-9" d="M90.92,31.43H83.19a3.25,3.25,0,0,0,1,2.32,3,3,0,0,0,2.16.84,2.89,2.89,0,0,0,1.74-.51,2.69,2.69,0,0,0,1-1.35h1.73a4.34,4.34,0,0,1-1.55,2.36,4.57,4.57,0,0,1-2.9.91,4.76,4.76,0,0,1-2.47-.64,4.49,4.49,0,0,1-1.7-1.83,6.46,6.46,0,0,1,0-5.48,4.29,4.29,0,0,1,1.69-1.81,4.89,4.89,0,0,1,2.5-.63,4.69,4.69,0,0,1,2.44.62A4.28,4.28,0,0,1,90.4,28,5.26,5.26,0,0,1,91,30.42,9,9,0,0,1,90.92,31.43Zm-2-3a2.71,2.71,0,0,0-1.11-1A3.3,3.3,0,0,0,86.26,27a2.92,2.92,0,0,0-2.08.81,3.33,3.33,0,0,0-1,2.24h6.11A3.2,3.2,0,0,0,88.91,28.42Z" transform="translate(0 2.08)"/><path class="cls-9" d="M100.67,26.7a4.37,4.37,0,0,1,1.1,3.2v5.94h-1.59v-5.7a3.27,3.27,0,0,0-.73-2.3,2.51,2.51,0,0,0-2-.8,2.6,2.6,0,0,0-2,.82,3.5,3.5,0,0,0-.75,2.41v5.57H93.09V25.77H94.7V27.2A3.25,3.25,0,0,1,96,26a3.92,3.92,0,0,1,1.81-.42A3.83,3.83,0,0,1,100.67,26.7Z" transform="translate(0 2.08)"/><path class="cls-9" d="M104.4,28.06a4.38,4.38,0,0,1,4-2.45,4.27,4.27,0,0,1,2.1.54A3.75,3.75,0,0,1,112,27.57V22.24h1.63v13.6H112v-1.9a3.84,3.84,0,0,1-1.41,1.48,4,4,0,0,1-2.19.58,4.31,4.31,0,0,1-2.34-.66,4.53,4.53,0,0,1-1.65-1.86,5.94,5.94,0,0,1-.6-2.71A5.82,5.82,0,0,1,104.4,28.06Zm7.15.74a3.14,3.14,0,0,0-2.84-1.74,3.08,3.08,0,0,0-1.64.44,3.14,3.14,0,0,0-1.19,1.28,4.32,4.32,0,0,0-.44,2,4.38,4.38,0,0,0,.44,2,3.2,3.2,0,0,0,1.19,1.3,3.09,3.09,0,0,0,1.64.45,3.12,3.12,0,0,0,2.84-1.75,4.24,4.24,0,0,0,.44-2A4.16,4.16,0,0,0,111.55,28.8Z" transform="translate(0 2.08)"/><g class="cls-3"><path class="cls-10" d="M12.55,38.77h8.63a3.41,3.41,0,0,1,3.41,3.41V53.62a0,0,0,0,1,0,0H9.74a0,0,0,0,1,0,0v-12a2.81,2.81,0,0,1,2.81-2.81Z" transform="translate(22.16 -0.75) rotate(26.2)"/><path class="cls-10" d="M34.15,43.36h8.63a3.41,3.41,0,0,1,3.41,3.41V58.21a0,0,0,0,1,0,0H31.34a0,0,0,0,1,0,0v-12A2.81,2.81,0,0,1,34.15,43.36Z"/><path class="cls-10" d="M55.92,45.58h8.63A3.41,3.41,0,0,1,68,49V60.43a0,0,0,0,1,0,0H53.11a0,0,0,0,1,0,0v-12A2.81,2.81,0,0,1,55.92,45.58Z"/><path class="cls-10" d="M78.62,45.58h8.63A3.41,3.41,0,0,1,90.66,49V60.43a0,0,0,0,1,0,0H75.81a0,0,0,0,1,0,0v-12A2.81,2.81,0,0,1,78.62,45.58Z"/><path class="cls-10" d="M101,46.7h8.63A3.41,3.41,0,0,1,113,50.1V61.55a0,0,0,0,1,0,0H98.16a0,0,0,0,1,0,0v-12A2.81,2.81,0,0,1,101,46.7Z"/><path class="cls-10" d="M123.59,45.23h8.63a3.41,3.41,0,0,1,3.41,3.41V60.08a0,0,0,0,1,0,0H120.77a0,0,0,0,1,0,0V48A2.81,2.81,0,0,1,123.59,45.23Z"/><path class="cls-10" d="M146.8,44.39h8.63a3.41,3.41,0,0,1,3.41,3.41V59.25a0,0,0,0,1,0,0H144a0,0,0,0,1,0,0v-12a2.81,2.81,0,0,1,2.81-2.81Z" transform="translate(-6.21 26.25) rotate(-8.94)"/><path class="cls-10" d="M167.77,36.07h8.63a3.41,3.41,0,0,1,3.41,3.41V50.93a0,0,0,0,1,0,0H165a0,0,0,0,1,0,0v-12a2.81,2.81,0,0,1,2.81-2.81Z" transform="translate(3.22 100.28) rotate(-32.08)"/></g><g class="cls-11"><path class="cls-10" d="M165.2,4.61h8.63A3.41,3.41,0,0,1,177.24,8V19.46a0,0,0,0,1,0,0H162.39a0,0,0,0,1,0,0v-12A2.81,2.81,0,0,1,165.2,4.61Z" transform="translate(316.86 99.9) rotate(-153.8)"/><path class="cls-10" d="M143.6,2.1h8.63a3.41,3.41,0,0,1,3.41,3.41V16.95a0,0,0,0,1,0,0H140.79a0,0,0,0,1,0,0v-12A2.81,2.81,0,0,1,143.6,2.1Z" transform="translate(296.42 21.12) rotate(180)"/><path class="cls-10" d="M121.83-.12h8.63a3.41,3.41,0,0,1,3.41,3.41V14.73a0,0,0,0,1,0,0H119a0,0,0,0,1,0,0v-12a2.81,2.81,0,0,1,2.81-2.81Z" transform="translate(252.88 16.69) rotate(180)"/><path class="cls-10" d="M99.13-.12h8.63a3.41,3.41,0,0,1,3.41,3.41V14.73a0,0,0,0,1,0,0H96.32a0,0,0,0,1,0,0v-12A2.81,2.81,0,0,1,99.13-.12Z" transform="translate(207.49 16.69) rotate(180)"/><path class="cls-10" d="M76.78-1.24h8.63a3.41,3.41,0,0,1,3.41,3.41V13.61a0,0,0,0,1,0,0H74a0,0,0,0,1,0,0v-12a2.81,2.81,0,0,1,2.81-2.81Z" transform="translate(162.79 14.45) rotate(180)"/><path class="cls-10" d="M54.17.23H62.8A3.41,3.41,0,0,1,66.2,3.64V15.08a0,0,0,0,1,0,0H51.35a0,0,0,0,1,0,0V3A2.81,2.81,0,0,1,54.17.23Z" transform="translate(117.56 17.39) rotate(180)"/><path class="cls-10" d="M31-1h8.63A3.41,3.41,0,0,1,43,2.39V13.84a0,0,0,0,1,0,0H28.14a0,0,0,0,1,0,0V1.8A2.81,2.81,0,0,1,31-1Z" transform="translate(71.69 9.3) rotate(171.06)"/><path class="cls-10" d="M10,7.31h8.63A3.41,3.41,0,0,1,22,10.71V22.16a0,0,0,0,1,0,0H7.17a0,0,0,0,1,0,0v-12A2.81,2.81,0,0,1,10,7.31Z" transform="translate(34.79 21.54) rotate(147.92)"/></g></g></g></svg>