<svg id="Capa_1" data-name="Capa 1" xmlns="http://www.w3.org/2000/svg" xmlns:xlink="http://www.w3.org/1999/xlink" viewBox="0 0 186.98 70.09"><defs><style>.cls-1{fill:none;}.cls-2{fill:#55272a;}.cls-3{clip-path:url(#clip-path);}.cls-4{fill:#583235;}.cls-5{fill:#1c1215;}.cls-6{fill:#b95d61;}.cls-7{opacity:0.74;}.cls-8{fill:#f39419;}.cls-9{fill:#fff;}.cls-10{fill:#ececec;}.cls-11{clip-path:url(#clip-path-3);}</style><clipPath id="clip-path" transform="translate(0 0)"><path class="cls-1" d="M29.81,5.66H157.17a26.29,26.29,0,0,1,26.28,26.28h0a26.29,26.29,0,0,1-26.28,26.28H29.81A26.29,26.29,0,0,1,3.53,31.94h0A26.29,26.29,0,0,1,29.81,5.66Z"/></clipPath><clipPath id="clip-path-3" transform="translate(0 0)"><path class="cls-1" d="M157.17,56.73H29.81A26.29,26.29,0,0,1,3.53,30.45h0A26.29,26.29,0,0,1,29.81,4.17H157.17a26.29,26.29,0,0,1,26.28,26.28h0A26.29,26.29,0,0,1,157.17,56.73Z"/></clipPath></defs><g id="Capa_2" data-name="Capa 2"><g id="Capa_1-2" data-name="Capa 1-2"><rect class="cls-2" y="2.08" width="186.98" height="59.72" rx="29.86"/><g class="cls-3"><path class="cls-4" d="M29.81,5.66H157.17a26.29,26.29,0,0,1,26.28,26.28h0a26.29,26.29,0,0,1-26.28,26.28H29.81A26.29,26.29,0,0,1,3.53,31.94h0A26.29,26.29,0,0,1,29.81,5.66Z" transform="translate(0 0)"/><path class="cls-5" d="M41.9,38c.81-1.88,4.4-9.69,13.17-13.35,8.36-3.49,18.24-1.88,25.77,4.08A23.84,23.84,0,0,1,96.41,23c8.66.12,14.22,5.15,16.31,7.05,1.75,1.58,10.22,9.25,8.16,16.87-.24.88-1.2,3.93-5.56,6.86-11,7.39-27,2.88-39.86-.93A144.59,144.59,0,0,1,41.9,38Z" transform="translate(0 0)"/><path class="cls-6" d="M6.49,52.84a74.85,74.85,0,0,1,41-17.8c7-.69,27.52-2.72,45.42,10.94a57.22,57.22,0,0,1,17,21.51,195.24,195.24,0,0,1-71.16-3.71A191.2,191.2,0,0,1,6.49,52.84Z" transform="translate(0 0)"/><path class="cls-6" d="M92.79,44.22a24.55,24.55,0,0,0-4.68-2.84A81.83,81.83,0,0,1,112.17,36c8.59-.6,28.4-2,45.42,10.94a57.11,57.11,0,0,1,17,21.5c-55.17,4.13-70.31,0-71.77-5.47-.33-1.27-.31-4-2-7.78A25.7,25.7,0,0,0,92.79,44.22Z" transform="translate(0 0)"/></g><g class="cls-7"><path class="cls-5" d="M45.65,25.47A31.36,31.36,0,0,1,71.4,18.7c.78.14,1.12-1.06.33-1.21a32.7,32.7,0,0,0-27,7.1c-.61.51.28,1.4.89.88Z" transform="translate(0 0)"/></g><g class="cls-7"><path class="cls-5" d="M43.71,21.73A31.32,31.32,0,0,1,69.46,15c.79.14,1.12-1.06.33-1.21a32.7,32.7,0,0,0-27,7.09c-.62.52.27,1.4.88.89Z" transform="translate(0 0)"/></g><g class="cls-7"><path class="cls-5" d="M41.65,18A31.36,31.36,0,0,1,67.4,11.21c.78.15,1.12-1.06.33-1.2a32.7,32.7,0,0,0-27,7.09c-.61.52.27,1.4.89.88Z" transform="translate(0 0)"/></g><g class="cls-7"><path class="cls-5" d="M117.92,24.59a32.67,32.67,0,0,0-27-7.1c-.79.15-.46,1.35.33,1.21A31.36,31.36,0,0,1,117,25.47c.61.51,1.5-.36.88-.88Z" transform="translate(0 0)"/></g><g class="cls-7"><path class="cls-5" d="M119.86,20.84a32.7,32.7,0,0,0-27-7.09c-.79.15-.46,1.35.33,1.21A31.34,31.34,0,0,1,119,21.73c.61.51,1.5-.37.88-.89Z" transform="translate(0 0)"/></g><g class="cls-7"><path class="cls-5" d="M121.93,17.08A32.71,32.71,0,0,0,95,10c-.79.14-.45,1.35.33,1.2A31.32,31.32,0,0,1,121,18c.61.52,1.5-.36.89-.88Z" transform="translate(0 0)"/></g><path class="cls-8" d="M138.3,47.44C135.2,54,126,57.18,120.66,52.88a10,10,0,0,1-3-4.21,10.12,10.12,0,0,1-5,4.66c-4.84,1.94-10.59-1-13.57-5.76-2.67,5.44-9,9.12-14.31,7a11,11,0,0,1-6.06-7.32c-3.12,4.11-8.4,6.53-13,4.73-3.78-1.53-6.23-5.76-6.6-10.2-3.17,3.54-8,5.45-12.13,3.8C41.48,43.34,38.8,35.17,41.48,29c2.19-5.09,7.94-8.7,13.22-7.44a14.41,14.41,0,0,1,.5-1.44c2.42-5.61,9.14-9.42,14.79-6.93a10.11,10.11,0,0,1,4.77,4.5,10.48,10.48,0,0,1,6.61-.93c3.15-3.57,8.19-5.46,12.59-3.51a9,9,0,0,1,2.3,1.44c4.48-3.41,11.37-3.7,15.3.63a10.47,10.47,0,0,1,2.53,5.52,10.36,10.36,0,0,1,10-1.22c4.31,1.9,6.46,6.78,6.41,11.18a9.61,9.61,0,0,1,5.4,2.24C140,36.58,140.36,43.06,138.3,47.44Z" transform="translate(0 0)"/><path class="cls-9" d="M69.48,39.38a4.28,4.28,0,0,1-1.7-1.4,3.81,3.81,0,0,1-.72-2h2.09A2.22,2.22,0,0,0,70,37.49a3.18,3.18,0,0,0,2,.61,2.87,2.87,0,0,0,1.83-.55,1.63,1.63,0,0,0,.66-1.33A1.24,1.24,0,0,0,73.8,35a9.33,9.33,0,0,0-2.24-.79,14.45,14.45,0,0,1-2.22-.74,4.17,4.17,0,0,1-1.47-1.13,3.07,3.07,0,0,1-.61-2,3.15,3.15,0,0,1,.52-1.79,3.72,3.72,0,0,1,1.57-1.26,5.43,5.43,0,0,1,2.35-.47A4.81,4.81,0,0,1,75,27.86a3.83,3.83,0,0,1,1.34,2.91h-2a2.19,2.19,0,0,0-.77-1.59,2.78,2.78,0,0,0-1.89-.6,2.85,2.85,0,0,0-1.72.48,1.54,1.54,0,0,0-.65,1.26,1.49,1.49,0,0,0,.38,1,2.84,2.84,0,0,0,1,.65c.53.21,1.08.39,1.63.55a16.49,16.49,0,0,1,2.15.73,3.89,3.89,0,0,1,1.41,1.07,3,3,0,0,1,.6,1.88,3.23,3.23,0,0,1-.55,1.88,3.91,3.91,0,0,1-1.56,1.26,5.51,5.51,0,0,1-2.34.48A6.21,6.21,0,0,1,69.48,39.38Z" transform="translate(0 0)"/><path class="cls-9" d="M90.37,34.11H80.62A4.11,4.11,0,0,0,81.89,37a3.81,3.81,0,0,0,2.72,1.06,3.64,3.64,0,0,0,2.19-.65,3.34,3.34,0,0,0,1.26-1.7h2.18a5.51,5.51,0,0,1-1.95,3,5.78,5.78,0,0,1-3.66,1.14,6.06,6.06,0,0,1-3.11-.8,5.61,5.61,0,0,1-2.14-2.31,8.11,8.11,0,0,1,0-6.91,5.39,5.39,0,0,1,2.13-2.28,6.21,6.21,0,0,1,3.15-.8,6,6,0,0,1,3.08.79,5.32,5.32,0,0,1,2,2.23,6.5,6.5,0,0,1,.76,3.05A10.86,10.86,0,0,1,90.37,34.11Zm-2.52-3.78a3.47,3.47,0,0,0-1.4-1.26,4.08,4.08,0,0,0-2-.54,3.68,3.68,0,0,0-2.63,1,4.21,4.21,0,0,0-1.26,2.82h7.71a4.08,4.08,0,0,0-.48-2Z" transform="translate(0 0)"/><path class="cls-9" d="M102.66,28.15a5.48,5.48,0,0,1,1.39,4v7.49h-2V32.49a4.07,4.07,0,0,0-.92-2.9,3.15,3.15,0,0,0-2.52-1,3.28,3.28,0,0,0-2.52,1,4.38,4.38,0,0,0-.94,3v7h-2V27h2v1.8a4,4,0,0,1,1.63-1.51,4.91,4.91,0,0,1,2.29-.53A4.81,4.81,0,0,1,102.66,28.15Z" transform="translate(0 0)"/><path class="cls-9" d="M107.36,29.86a5.54,5.54,0,0,1,5-3.09,5.34,5.34,0,0,1,2.64.69,4.68,4.68,0,0,1,1.9,1.79V22.53h2V39.67h-2V37.28a4.89,4.89,0,0,1-1.78,1.86,5,5,0,0,1-2.76.73,5.38,5.38,0,0,1-3-.83,5.67,5.67,0,0,1-2.08-2.34,7.53,7.53,0,0,1-.76-3.42A7.38,7.38,0,0,1,107.36,29.86Zm9,.94a4,4,0,0,0-3.58-2.2,3.86,3.86,0,0,0-2.07.56,4,4,0,0,0-1.5,1.61,6,6,0,0,0,0,5,4,4,0,0,0,1.5,1.64,3.87,3.87,0,0,0,2.07.57,3.93,3.93,0,0,0,3.58-2.21,5.22,5.22,0,0,0,.55-2.52A5.13,5.13,0,0,0,116.38,30.8Z" transform="translate(0 0)"/><g class="cls-3"><path class="cls-10" d="M16.3,39.58l7.75,3.81A3.4,3.4,0,0,1,25.6,48L20.55,58.22h0L7.23,51.66h0l5.29-10.77a2.82,2.82,0,0,1,3.77-1.28h0Z" transform="translate(0 0)"/><path class="cls-10" d="M34.15,43.36h8.63a3.41,3.41,0,0,1,3.41,3.41V58.21H31.34v-12a2.81,2.81,0,0,1,2.77-2.85Z" transform="translate(0 0)"/><path class="cls-10" d="M55.92,45.58h8.63A3.41,3.41,0,0,1,68,49V60.43H53.11v-12a2.81,2.81,0,0,1,2.77-2.85Z" transform="translate(0 0)"/><path class="cls-10" d="M78.62,45.58h8.63A3.41,3.41,0,0,1,90.66,49h0V60.43H75.81v-12a2.81,2.81,0,0,1,2.77-2.85Z" transform="translate(0 0)"/><path class="cls-10" d="M101,46.7h8.63A3.42,3.42,0,0,1,113,50.1V61.55H98.16v-12a2.81,2.81,0,0,1,2.77-2.85Z" transform="translate(0 0)"/><path class="cls-10" d="M123.59,45.23h8.63a3.41,3.41,0,0,1,3.41,3.41h0V60.08H120.77V48A2.81,2.81,0,0,1,123.59,45.23Z" transform="translate(0 0)"/><path class="cls-10" d="M145.7,47.29,154.23,46a3.41,3.41,0,0,1,3.9,2.84h0l1.78,11.31h0l-14.66,2.3h0l-1.87-11.85a2.81,2.81,0,0,1,2.34-3.21Z" transform="translate(0 0)"/><path class="cls-10" d="M164.53,41.74l7.31-4.58a3.41,3.41,0,0,1,4.7,1.07h0l6.08,9.71h0L170.07,55.8h0L163.7,45.63a2.81,2.81,0,0,1,.89-3.87Z" transform="translate(0 0)"/></g><g class="cls-11"><path class="cls-10" d="M170.67,22.83,162.92,19a3.41,3.41,0,0,1-1.56-4.55l5.06-10.28h0l13.33,6.55h0l-5.3,10.77a2.81,2.81,0,0,1-3.75,1.33Z" transform="translate(0 0)"/><path class="cls-10" d="M152.82,19h-8.63a3.41,3.41,0,0,1-3.41-3.41h0V4.17h14.85v12A2.81,2.81,0,0,1,152.86,19Z" transform="translate(0 0)"/><path class="cls-10" d="M131.05,16.81h-8.63A3.41,3.41,0,0,1,119,13.4h0V2h14.87V14a2.81,2.81,0,0,1-2.81,2.81Z" transform="translate(0 0)"/><path class="cls-10" d="M108.36,16.81H99.73a3.41,3.41,0,0,1-3.41-3.41h0V2h14.85V14a2.81,2.81,0,0,1-2.77,2.85Z" transform="translate(0 0)"/><path class="cls-10" d="M86,15.69H77.38A3.41,3.41,0,0,1,74,12.28h0V.84H88.79v12A2.81,2.81,0,0,1,86,15.65Z" transform="translate(0 0)"/><path class="cls-10" d="M63.39,17.16H54.76a3.41,3.41,0,0,1-3.4-3.41V2.31H66.21V14.39A2.81,2.81,0,0,1,63.39,17.16Z" transform="translate(0 0)"/><path class="cls-10" d="M41.22,15.11,32.7,16.45a3.42,3.42,0,0,1-3.86-2.83L27.06,2.31h0L41.74,0h0l1.87,11.89a2.81,2.81,0,0,1-2.35,3.21Z" transform="translate(0 0)"/><path class="cls-10" d="M22.43,20.66l-7.31,4.58a3.41,3.41,0,0,1-4.66-1.09l-6.08-9.7h0L17,6.57h0l6.37,10.17a2.81,2.81,0,0,1-.83,3.88Z" transform="translate(0 0)"/></g></g></g></svg>